<svg width="68" height="68" viewBox="0 0 68 68" fill="none" xmlns="http://www.w3.org/2000/svg">
<path d="M31.166 49.5833C31.1696 45.9749 32.2331 42.447 34.2245 39.4378C36.2159 36.4286 39.0474 34.0708 42.3674 32.6571C45.6874 31.2434 49.3495 30.8361 52.899 31.4859C56.4485 32.1357 59.7288 33.8138 62.3327 36.312V8.5C62.3327 6.24566 61.4372 4.08365 59.8431 2.48959C58.249 0.895533 56.087 0 53.8327 0L19.8327 0C16.0768 0.00449893 12.4761 1.4985 9.82031 4.15429C7.16451 6.81008 5.67051 10.4108 5.66602 14.1667V53.8333C5.67051 57.5892 7.16451 61.1899 9.82031 63.8457C12.4761 66.5015 16.0768 67.9955 19.8327 68H49.5827C44.6983 68 40.0139 66.0597 36.5601 62.6059C33.1063 59.1521 31.166 54.4677 31.166 49.5833ZM19.8327 19.8333C19.8327 19.0819 20.1312 18.3612 20.6625 17.8299C21.1939 17.2985 21.9146 17 22.666 17H45.3327C46.0841 17 46.8048 17.2985 47.3362 17.8299C47.8675 18.3612 48.166 19.0819 48.166 19.8333C48.166 20.5848 47.8675 21.3054 47.3362 21.8368C46.8048 22.3682 46.0841 22.6667 45.3327 22.6667H22.666C21.9146 22.6667 21.1939 22.3682 20.6625 21.8368C20.1312 21.3054 19.8327 20.5848 19.8327 19.8333ZM67.1692 67.1698C66.6379 67.701 65.9173 67.9994 65.166 67.9994C64.4147 67.9994 63.6942 67.701 63.1629 67.1698L56.343 60.35C54.3234 61.639 51.9787 62.3269 49.5827 62.3333C47.061 62.3333 44.5959 61.5856 42.4992 60.1846C40.4024 58.7836 38.7682 56.7923 37.8032 54.4625C36.8382 52.1328 36.5857 49.5692 37.0777 47.0959C37.5696 44.6227 38.784 42.3508 40.5671 40.5677C42.3502 38.7846 44.622 37.5703 47.0953 37.0783C49.5685 36.5864 52.1321 36.8388 54.4619 37.8039C56.7917 38.7689 58.7829 40.4031 60.1839 42.4998C61.5849 44.5965 62.3327 47.0616 62.3327 49.5833C62.3263 51.9793 61.6384 54.324 60.3493 56.3437L67.1692 63.1635C67.7004 63.6948 67.9987 64.4154 67.9987 65.1667C67.9987 65.918 67.7004 66.6385 67.1692 67.1698Z" fill="#C7E375"/>
</svg>
