<svg width="24" height="24" viewBox="0 0 24 24" fill="none" xmlns="http://www.w3.org/2000/svg">
<path d="M12 9C12 8.73478 12.1054 8.48043 12.2929 8.29289C12.4804 8.10536 12.7348 8 13 8C13.2652 8 13.5196 8.10536 13.7071 8.29289C13.8946 8.48043 14 8.73478 14 9C14 9.26522 13.8946 9.51957 13.7071 9.70711C13.5196 9.89464 13.2652 10 13 10C12.7348 10 12.4804 9.89464 12.2929 9.70711C12.1054 9.51957 12 9.26522 12 9ZM23 5V19C22.9984 20.3256 22.4711 21.5964 21.5338 22.5338C20.5964 23.4711 19.3256 23.9984 18 24H8C7.02823 23.9987 6.0779 23.7143 5.26521 23.1815C4.45252 22.6487 3.81271 21.8906 3.424 21H2C1.73478 21 1.48043 20.8946 1.29289 20.7071C1.10536 20.5196 1 20.2652 1 20C1 19.7348 1.10536 19.4804 1.29289 19.2929C1.48043 19.1054 1.73478 19 2 19H3V17H2C1.73478 17 1.48043 16.8946 1.29289 16.7071C1.10536 16.5196 1 16.2652 1 16C1 15.7348 1.10536 15.4804 1.29289 15.2929C1.48043 15.1054 1.73478 15 2 15H3V13H2C1.73478 13 1.48043 12.8946 1.29289 12.7071C1.10536 12.5196 1 12.2652 1 12C1 11.7348 1.10536 11.4804 1.29289 11.2929C1.48043 11.1054 1.73478 11 2 11H3V9H2C1.73478 9 1.48043 8.89464 1.29289 8.70711C1.10536 8.51957 1 8.26522 1 8C1 7.73478 1.10536 7.48043 1.29289 7.29289C1.48043 7.10536 1.73478 7 2 7H3V5H2C1.73478 5 1.48043 4.89464 1.29289 4.70711C1.10536 4.51957 1 4.26522 1 4C1 3.73478 1.10536 3.48043 1.29289 3.29289C1.48043 3.10536 1.73478 3 2 3H3.424C3.81271 2.10936 4.45252 1.35129 5.26521 0.818499C6.0779 0.285705 7.02823 0.00127838 8 0L18 0C19.3256 0.00158786 20.5964 0.528882 21.5338 1.46622C22.4711 2.40356 22.9984 3.6744 23 5ZM10 9C10 9.79565 10.3161 10.5587 10.8787 11.1213C11.4413 11.6839 12.2044 12 13 12C13.7956 12 14.5587 11.6839 15.1213 11.1213C15.6839 10.5587 16 9.79565 16 9C16 8.20435 15.6839 7.44129 15.1213 6.87868C14.5587 6.31607 13.7956 6 13 6C12.2044 6 11.4413 6.31607 10.8787 6.87868C10.3161 7.44129 10 8.20435 10 9ZM18 18C17.789 11.392 8.209 11.394 8 18C8 18.2652 8.10536 18.5196 8.29289 18.7071C8.48043 18.8946 8.73478 19 9 19C9.26522 19 9.51957 18.8946 9.70711 18.7071C9.89464 18.5196 10 18.2652 10 18C10 17.2044 10.3161 16.4413 10.8787 15.8787C11.4413 15.3161 12.2044 15 13 15C13.7956 15 14.5587 15.3161 15.1213 15.8787C15.6839 16.4413 16 17.2044 16 18C16 18.2652 16.1054 18.5196 16.2929 18.7071C16.4804 18.8946 16.7348 19 17 19C17.2652 19 17.5196 18.8946 17.7071 18.7071C17.8946 18.5196 18 18.2652 18 18Z" fill="#1A1A1A"/>
</svg>
