<svg width="68" height="68" viewBox="0 0 68 68" fill="none" xmlns="http://www.w3.org/2000/svg">
<g clip-path="url(#clip0_130_1226)">
<path fill-rule="evenodd" clip-rule="evenodd" d="M33.999 0.838379C15.2225 0.838379 -0.000976562 16.059 -0.000976562 34.8384C-0.000976562 49.8607 9.74002 62.605 23.2494 67.1015C24.9494 67.416 25.5727 66.3649 25.5727 65.4667C25.5727 64.6564 25.5415 61.9789 25.5274 59.137C16.0697 61.194 14.0722 55.125 14.0722 55.125C12.5252 51.1952 10.2982 50.1497 10.2982 50.1497C7.21269 48.0389 10.5305 48.0842 10.5305 48.0842C13.9447 48.325 15.741 51.589 15.741 51.589C18.7727 56.7854 23.6942 55.2837 25.635 54.4139C25.941 52.2152 26.8222 50.7164 27.794 49.8664C20.2432 49.0079 12.3042 46.0924 12.3042 33.0647C12.3042 29.353 13.633 26.3185 15.809 23.9385C15.4549 23.08 14.2904 19.6234 16.1377 14.9399C16.1377 14.9399 18.9937 14.0275 25.4905 18.4249C28.202 17.6712 31.109 17.2944 33.999 17.2802C36.889 17.2944 39.7989 17.6712 42.516 18.4249C49.0044 14.0247 51.8575 14.9399 51.8575 14.9399C53.7077 19.6234 52.5432 23.08 52.1919 23.9385C54.3707 26.3185 55.691 29.353 55.691 33.0647C55.691 46.1235 47.7379 48.9994 40.1672 49.8409C41.3855 50.8949 42.4735 52.966 42.4735 56.1365C42.4735 60.6869 42.4339 64.3475 42.4339 65.4667C42.4339 66.3705 43.0459 67.433 44.7685 67.0987C58.2722 62.5965 68.0019 49.8579 68.0019 34.8412C67.999 16.0619 52.7755 0.838379 33.999 0.838379Z" fill="#1A1A1A"/>
<path d="M12.8788 49.6567C12.8051 49.8266 12.5388 49.8777 12.2951 49.7615C12.0486 49.651 11.9098 49.4187 11.9891 49.2515C12.0628 49.0787 12.3291 49.0305 12.5756 49.1467C12.8221 49.2543 12.9638 49.4867 12.8788 49.6567Z" fill="black"/>
<path d="M14.2553 51.193C14.0938 51.3432 13.7764 51.2724 13.5611 51.0372C13.3373 50.7992 13.2976 50.4819 13.4619 50.3317C13.6291 50.1815 13.9351 50.2524 14.1589 50.4904C14.3828 50.7255 14.4253 51.04 14.2553 51.193Z" fill="black"/>
<path d="M15.5946 53.1511C15.3849 53.2956 15.0449 53.1596 14.8353 52.8592C14.6256 52.5561 14.6256 52.1934 14.8409 52.0489C15.0506 51.9044 15.3878 52.0347 15.6003 52.3351C15.8071 52.6411 15.8071 53.0037 15.5946 53.1511Z" fill="black"/>
<path d="M17.4298 55.0427C17.2428 55.2496 16.8461 55.1929 16.5571 54.9124C16.2596 54.6376 16.1775 54.2494 16.3645 54.0426C16.5543 53.8357 16.9538 53.8952 17.2456 54.1729C17.5403 54.4477 17.6281 54.8387 17.4298 55.0427Z" fill="black"/>
<path d="M19.9657 56.1397C19.8836 56.4061 19.5011 56.5279 19.1157 56.4146C18.7304 56.2984 18.4782 55.9867 18.5576 55.7176C18.6369 55.4484 19.0222 55.3237 19.4104 55.4456C19.7929 55.5589 20.0451 55.8706 19.9657 56.1397Z" fill="black"/>
<path d="M22.7481 56.3437C22.7566 56.6242 22.4308 56.8566 22.0256 56.8622C21.6205 56.8707 21.289 56.6441 21.2861 56.3692C21.2861 56.0859 21.6063 55.8564 22.0115 55.8479C22.4166 55.8394 22.7481 56.0661 22.7481 56.3437Z" fill="black"/>
<path d="M25.337 55.904C25.3852 56.176 25.1047 56.4593 24.7023 56.533C24.3085 56.6066 23.943 56.4366 23.892 56.1646C23.8438 55.8841 24.13 55.6036 24.5238 55.53C24.9233 55.4591 25.286 55.6235 25.337 55.904Z" fill="black"/>
</g>
<defs>
<clipPath id="clip0_130_1226">
<rect width="68" height="68" fill="white"/>
</clipPath>
</defs>
</svg>
