<svg width="68" height="68" viewBox="0 0 68 68" fill="none" xmlns="http://www.w3.org/2000/svg">
<g clip-path="url(#clip0_130_1220)">
<path d="M67.8697 15.7023L44.0187 39.5533C41.3592 42.2061 37.7563 43.6958 34 43.6958C30.2437 43.6958 26.6408 42.2061 23.9813 39.5533L0.130333 15.7023C0.0906667 16.15 0 16.5552 0 17V51C0.00449893 54.7559 1.4985 58.3566 4.15429 61.0124C6.81008 63.6682 10.4108 65.1622 14.1667 65.1667H53.8333C57.5892 65.1622 61.1899 63.6682 63.8457 61.0124C66.5015 58.3566 67.9955 54.7559 68 51V17C68 16.5552 67.9093 16.15 67.8697 15.7023Z" fill="#1A1A1A"/>
<path d="M40.0127 35.547L65.8924 9.66448C64.6387 7.58572 62.8705 5.86509 60.7583 4.66855C58.6462 3.47201 56.2613 2.83994 53.8337 2.83331H14.1671C11.7395 2.83994 9.35465 3.47201 7.24247 4.66855C5.1303 5.86509 3.36209 7.58572 2.1084 9.66448L27.9881 35.547C29.5849 37.1374 31.7467 38.0303 34.0004 38.0303C36.2541 38.0303 38.4159 37.1374 40.0127 35.547Z" fill="#1A1A1A"/>
</g>
<defs>
<clipPath id="clip0_130_1220">
<rect width="68" height="68" fill="white"/>
</clipPath>
</defs>
</svg>
