<svg width="68" height="68" viewBox="0 0 68 68" fill="none" xmlns="http://www.w3.org/2000/svg">
<g clip-path="url(#clip0_130_1223)">
<path fill-rule="evenodd" clip-rule="evenodd" d="M34 0C15.2235 0 0 15.2235 0 34C0 52.7765 15.2235 68 34 68C52.7765 68 68 52.7765 68 34C68 15.2235 52.7765 0 34 0ZM49.759 23.1228C49.249 28.4977 47.0333 41.5452 45.9085 47.566C45.4325 50.116 44.4918 50.9688 43.5852 51.051C41.6103 51.2323 40.1115 49.7448 38.199 48.4925C35.207 46.5318 33.5155 45.3107 30.6113 43.3953C27.2538 41.1825 29.4298 39.967 31.3423 37.9808C31.8438 37.4595 40.5422 29.546 40.7122 28.8292C40.732 28.7385 40.7547 28.4042 40.5535 28.2285C40.3523 28.0528 40.0605 28.1123 39.8508 28.1605C39.5505 28.2285 34.7707 31.3877 25.5085 37.638C24.1513 38.5702 22.9217 39.0235 21.8195 39.0008C20.6068 38.9753 18.2722 38.3152 16.5353 37.7485C14.4075 37.0572 12.7132 36.6888 12.8605 35.5158C12.937 34.9038 13.7785 34.2777 15.3878 33.6373C25.2988 29.3193 31.909 26.4718 35.2155 25.0948C44.659 21.1678 46.6197 20.485 47.9003 20.4623C49.504 20.4397 49.8893 21.7628 49.759 23.1228Z" fill="#1A1A1A"/>
</g>
<defs>
<clipPath id="clip0_130_1223">
<rect width="68" height="68" fill="white"/>
</clipPath>
</defs>
</svg>
