<svg width="68" height="68" viewBox="0 0 68 68" fill="none" xmlns="http://www.w3.org/2000/svg">
<path d="M0 25.4999V50.9999C0.00449893 54.7558 1.4985 58.3565 4.15429 61.0123C6.81008 63.6681 10.4108 65.1621 14.1667 65.1666H53.8333C57.5892 65.1621 61.1899 63.6681 63.8457 61.0123C66.5015 58.3565 67.9955 54.7558 68 50.9999V25.4999H0ZM39.6667 53.8333H17C16.2486 53.8333 15.5279 53.5347 14.9965 53.0034C14.4652 52.472 14.1667 51.7514 14.1667 50.9999C14.1667 50.2485 14.4652 49.5278 14.9965 48.9964C15.5279 48.4651 16.2486 48.1666 17 48.1666H39.6667C40.4181 48.1666 41.1388 48.4651 41.6701 48.9964C42.2015 49.5278 42.5 50.2485 42.5 50.9999C42.5 51.7514 42.2015 52.472 41.6701 53.0034C41.1388 53.5347 40.4181 53.8333 39.6667 53.8333ZM51 42.4999H17C16.2486 42.4999 15.5279 42.2014 14.9965 41.6701C14.4652 41.1387 14.1667 40.418 14.1667 39.6666C14.1667 38.9151 14.4652 38.1945 14.9965 37.6631C15.5279 37.1318 16.2486 36.8333 17 36.8333H51C51.7514 36.8333 52.4721 37.1318 53.0035 37.6631C53.5348 38.1945 53.8333 38.9151 53.8333 39.6666C53.8333 40.418 53.5348 41.1387 53.0035 41.6701C52.4721 42.2014 51.7514 42.4999 51 42.4999ZM68 19.8333V16.9999C67.9955 13.2441 66.5015 9.64333 63.8457 6.98754C61.1899 4.33175 57.5892 2.83775 53.8333 2.83325H14.1667C10.4108 2.83775 6.81008 4.33175 4.15429 6.98754C1.4985 9.64333 0.00449893 13.2441 0 16.9999L0 19.8333H68ZM28.3333 8.49992C28.8937 8.49992 29.4415 8.66609 29.9074 8.97742C30.3734 9.28875 30.7365 9.73126 30.951 10.249C31.1654 10.7667 31.2215 11.3364 31.1122 11.886C31.0029 12.4356 30.733 12.9405 30.3368 13.3367C29.9406 13.733 29.4357 14.0028 28.8861 14.1121C28.3365 14.2215 27.7668 14.1654 27.2491 13.9509C26.7313 13.7365 26.2888 13.3733 25.9775 12.9074C25.6662 12.4414 25.5 11.8936 25.5 11.3333C25.5 10.5818 25.7985 9.86114 26.3299 9.32978C26.8612 8.79843 27.5819 8.49992 28.3333 8.49992ZM19.8333 8.49992C20.3937 8.49992 20.9415 8.66609 21.4074 8.97742C21.8734 9.28875 22.2365 9.73126 22.451 10.249C22.6654 10.7667 22.7215 11.3364 22.6122 11.886C22.5029 12.4356 22.2331 12.9405 21.8368 13.3367C21.4406 13.733 20.9357 14.0028 20.3861 14.1121C19.8365 14.2215 19.2668 14.1654 18.7491 13.9509C18.2313 13.7365 17.7888 13.3733 17.4775 12.9074C17.1662 12.4414 17 11.8936 17 11.3333C17 10.5818 17.2985 9.86114 17.8299 9.32978C18.3612 8.79843 19.0819 8.49992 19.8333 8.49992ZM11.3333 8.49992C11.8937 8.49992 12.4415 8.66609 12.9074 8.97742C13.3734 9.28875 13.7365 9.73126 13.951 10.249C14.1654 10.7667 14.2215 11.3364 14.1122 11.886C14.0029 12.4356 13.7331 12.9405 13.3368 13.3367C12.9406 13.733 12.4357 14.0028 11.8861 14.1121C11.3365 14.2215 10.7668 14.1654 10.2491 13.9509C9.73134 13.7365 9.28883 13.3733 8.9775 12.9074C8.66617 12.4414 8.5 11.8936 8.5 11.3333C8.5 10.5818 8.79851 9.86114 9.32986 9.32978C9.86122 8.79843 10.5819 8.49992 11.3333 8.49992Z" fill="#C7E375"/>
</svg>
