<svg width="68" height="68" viewBox="0 0 68 68" fill="none" xmlns="http://www.w3.org/2000/svg">
<g clip-path="url(#clip0_129_1184)">
<path d="M1.56986 38.5049C0.0297634 36.2391 -0.278096 33.3543 0.749209 30.8145C3.04514 26.1309 6.89126 22.3864 11.6347 20.2168C15.0689 18.5089 18.7889 17.4497 22.6075 17.0921C20.9436 19.1395 19.2779 21.324 17.6103 23.646C14.2164 28.7853 11.3113 34.2311 8.93298 39.9122L7.90926 42.2077C5.34492 41.9955 3.01433 40.6343 1.56986 38.5049ZM5.47003 50.4169C3.0199 53.8 1.26133 57.6332 0.295256 61.6972C-0.307049 64.3377 1.34527 66.9668 3.98598 67.5691C4.70463 67.733 5.4509 67.7328 6.16955 67.5685C10.2272 66.6009 14.0545 64.8435 17.433 62.3965C20.7411 59.09 20.7424 53.7277 17.4358 50.4197C14.1293 47.1116 8.76697 47.1102 5.45887 50.4169H5.47003ZM27.8529 58.8207L25.5405 59.8472V60.6764C25.5461 62.6626 26.3415 64.565 27.7515 65.964C29.0926 67.2684 30.8891 67.9987 32.7599 68.0002C39.4068 67.9043 44.7961 61.8524 47.6246 56.218C49.3574 52.7309 50.4202 48.9495 50.7576 45.0702C48.6896 46.7623 46.472 48.4543 44.105 50.1463C38.9677 53.5411 33.5227 56.4454 27.8416 58.8208L27.8529 58.8207ZM67.8416 8.34425C67.4665 20.62 58.6284 32.7942 40.8197 45.5692C35.9733 48.7108 30.8607 51.4209 25.5405 53.6685V52.0809C25.5142 46.6406 21.1106 42.2368 15.6703 42.2106H14.0827C16.3354 36.8903 19.0502 31.7777 22.196 26.9315C34.9398 9.1649 47.0943 0.315469 59.3503 -0.0849609C65.4585 -0.0849609 67.8416 2.40235 67.8416 8.34425ZM50.9211 23.88C50.9211 19.9863 47.7647 16.8298 43.8709 16.8298C39.9771 16.8298 36.8207 19.9862 36.8207 23.88C36.8207 27.7737 39.9771 30.9302 43.8709 30.9302C47.7647 30.9302 50.9211 27.7737 50.9211 23.88Z" fill="#C7E375"/>
</g>
<defs>
<clipPath id="clip0_129_1184">
<rect width="68" height="68" fill="white"/>
</clipPath>
</defs>
</svg>
