<svg width="69" height="68" viewBox="0 0 69 68" fill="none" xmlns="http://www.w3.org/2000/svg">
<g clip-path="url(#clip0_129_1186)">
<path d="M37.3342 11.3788C37.3342 9.81481 38.6007 8.54548 40.1675 8.54548H51.7162L48.0612 4.81681C46.9647 3.69765 46.9817 1.90415 48.1009 0.807648C49.2144 -0.283186 51.0135 -0.271852 52.1072 0.847314L58.2754 7.14015C59.3832 8.24515 60.0009 9.73831 60.0009 11.3306C60.0009 12.923 59.3804 14.419 58.2555 15.5438L52.1072 21.814C51.5547 22.3806 50.818 22.664 50.0842 22.664C49.3674 22.664 48.6505 22.3948 48.1009 21.8536C46.9817 20.7571 46.9675 18.9636 48.0612 17.8445L51.6255 14.2065H40.1675C38.6007 14.2065 37.3342 12.9371 37.3342 11.3731V11.3788ZM66.0869 24.5963C64.6277 23.2675 62.7265 22.579 60.7659 22.6753C58.791 22.766 56.972 23.6216 55.6829 25.0411L45.65 35.6293C45.7407 36.2243 45.8342 36.8193 45.8342 37.437C45.8342 43.3388 41.4284 48.419 35.586 49.252L23.5387 50.9406C21.9889 51.1616 20.5552 50.085 20.3342 48.538C20.1132 46.9881 21.1899 45.5545 22.7369 45.3335L34.5292 43.6816C37.1812 43.302 39.4819 41.398 40.0259 38.7743C40.8645 34.7368 37.7875 31.1668 33.8945 31.1668H25.998V28.3335H27.0634C31.1632 28.3335 34.498 24.9986 34.498 20.8988C34.498 17.2495 31.8829 14.164 28.2845 13.5661L18.977 12.0135C18.1214 11.8718 17.5009 11.138 17.5009 10.2681C17.5009 9.29348 18.2942 8.50015 19.2689 8.50015H26.7602C27.7689 8.50015 28.7095 9.04415 29.2167 9.91681C29.9959 11.2711 31.7242 11.7358 33.087 10.951C34.4414 10.1661 34.906 8.43498 34.1184 7.08065C32.6054 4.45981 29.7834 2.83065 26.7574 2.83065H25.998C25.998 1.26665 24.7315 -0.00268555 23.1647 -0.00268555C21.5979 -0.00268555 20.3314 1.26665 20.3314 2.83065H19.266C15.1662 2.83065 11.8314 6.16548 11.8314 10.2653C11.8314 13.9146 14.4465 17.0001 18.0449 17.598L27.3524 19.1506C28.208 19.2923 28.8285 20.0261 28.8285 20.896C28.8285 21.8706 28.0352 22.664 27.0605 22.664H19.5692C18.5605 22.664 17.6199 22.12 17.1127 21.2473C16.3335 19.8901 14.6024 19.4255 13.2424 20.2131C11.888 20.998 11.4234 22.7291 12.211 24.0835C13.724 26.7043 16.546 28.3306 19.572 28.3306H20.3314V31.164H11.8314C5.57255 31.164 0.498047 36.2385 0.498047 42.4973V56.664C0.498047 62.9228 5.57255 67.9973 11.8314 67.9973H23.907C31.8545 67.9973 39.4337 64.6596 44.8 58.8003L66.6224 34.9748C69.3084 31.9658 69.0647 27.305 66.0869 24.5906V24.5963Z" fill="#C7E375"/>
</g>
<defs>
<clipPath id="clip0_129_1186">
<rect width="68" height="68" fill="white" transform="translate(0.5)"/>
</clipPath>
</defs>
</svg>
