<svg width="69" height="68" viewBox="0 0 69 68" fill="none" xmlns="http://www.w3.org/2000/svg">
<g clip-path="url(#clip0_129_1188)">
<path d="M68.4996 10.0245V56.6668H66.8195C60.997 56.6668 55.7666 53.1025 53.636 47.6823L47.142 31.1668H31.6663C28.8443 31.1668 26.2263 29.2373 25.773 26.4521C25.195 22.902 27.9206 19.8335 31.3631 19.8335H59.4811C56.9708 16.7848 54.5172 13.8523 54.4265 13.756C51.987 11.1436 52.123 7.03247 54.7353 4.59014C57.3505 2.14498 61.456 2.26964 63.887 4.86781L68.4996 10.0245Z" fill="#C7E375"/>
<path d="M0.5 48.1667V53.8334C0.5 61.6449 6.85517 68.0001 14.6667 68.0001H31.6667C39.4782 68.0001 45.8333 61.6449 45.8333 53.8334V48.1667H0.5ZM26 60.9167H20.3333C18.7693 60.9167 17.5 59.6474 17.5 58.0834C17.5 56.5194 18.7693 55.2501 20.3333 55.2501H26C27.564 55.2501 28.8333 56.5194 28.8333 58.0834C28.8333 59.6474 27.564 60.9167 26 60.9167Z" fill="#C7E375"/>
<path d="M20.3333 25.5C20.3333 19.2412 25.4078 14.1667 31.6667 14.1667H45.8333C45.8333 6.34383 39.4895 0 31.6667 0H14.6667C6.84383 0 0.5 6.34383 0.5 14.1667V42.5H45.8333V36.8333H31.6667C25.4078 36.8333 20.3333 31.7588 20.3333 25.5Z" fill="#C7E375"/>
</g>
<defs>
<clipPath id="clip0_129_1188">
<rect width="68" height="68" fill="white" transform="translate(0.5)"/>
</clipPath>
</defs>
</svg>
